<svg width="34" height="34" viewBox="0 0 34 34" fill="none" xmlns="http://www.w3.org/2000/svg">
<g clip-path="url(#clip0_1_744)">
<path d="M9.2849 13.3137H9.55858C10.6123 13.3137 11.4743 14.1758 11.4743 15.2295V24.8083C11.4743 25.862 10.6123 26.724 9.55858 26.724H9.2849C8.23123 26.724 7.36914 25.862 7.36914 24.8083V15.2295C7.36914 14.1758 8.23123 13.3137 9.2849 13.3137ZM16.948 7.56641C18.0016 7.56641 18.8637 8.4285 18.8637 9.48217V24.8083C18.8637 25.862 18.0016 26.724 16.948 26.724C15.8943 26.724 15.0322 25.862 15.0322 24.8083V9.48217C15.0322 8.4285 15.8943 7.56641 16.948 7.56641ZM24.611 18.5136C25.6647 18.5136 26.5268 19.3757 26.5268 20.4294V24.8083C26.5268 25.862 25.6647 26.724 24.611 26.724C23.5573 26.724 22.6953 25.862 22.6953 24.8083V20.4294C22.6953 19.3757 23.5573 18.5136 24.611 18.5136Z" fill="black"/>
</g>
<defs>
<clipPath id="clip0_1_744">
<rect width="32.8417" height="32.8417" fill="white" transform="translate(0.527344 0.724609)"/>
</clipPath>
</defs>
</svg>
