<svg width="34" height="34" viewBox="0 0 34 34" fill="none" xmlns="http://www.w3.org/2000/svg">
<g clip-path="url(#clip0_1_753)">
<path d="M16.6744 15.6405C13.5681 14.8331 12.5692 13.9984 12.5692 12.6984C12.5692 11.2068 13.9513 10.1668 16.2639 10.1668C18.207 10.1668 19.1786 10.9058 19.5344 12.0826C19.6986 12.63 20.1502 13.0405 20.7249 13.0405H21.1354C22.0385 13.0405 22.6817 12.151 22.367 11.3026C21.7922 9.68791 20.4512 8.34687 18.3165 7.82688V6.88268C18.3165 5.74691 17.3997 4.83008 16.2639 4.83008C15.1281 4.83008 14.2113 5.74691 14.2113 6.88268V7.78583C11.5566 8.36056 9.42188 10.0847 9.42188 12.7258C9.42188 15.8868 12.0355 17.4604 15.8534 18.3773C19.2744 19.1983 19.9586 20.4025 19.9586 21.6751C19.9586 22.6193 19.2881 24.1246 16.2639 24.1246C14.006 24.1246 12.8429 23.3172 12.3913 22.1677C12.186 21.6341 11.7208 21.2509 11.1597 21.2509H10.7766C9.85976 21.2509 9.21661 22.1814 9.55872 23.0298C10.3387 24.9319 12.1587 26.054 14.2113 26.4919V27.4087C14.2113 28.5445 15.1281 29.4613 16.2639 29.4613C17.3997 29.4613 18.3165 28.5445 18.3165 27.4087V26.5193C20.9849 26.013 23.1059 24.4667 23.1059 21.6614C23.1059 17.7752 19.7807 16.4478 16.6744 15.6405Z" fill="black"/>
</g>
<defs>
<clipPath id="clip0_1_753">
<rect width="32.8417" height="32.8417" fill="white" transform="translate(0.527344 0.724609)"/>
</clipPath>
</defs>
</svg>
