<svg width="26" height="26" viewBox="0 0 26 26" fill="none" xmlns="http://www.w3.org/2000/svg">
<g clip-path="url(#clip0_1_775)">
<path d="M16.2493 1.08301H4.33268C3.14102 1.08301 2.16602 2.05801 2.16602 3.24967V17.333C2.16602 17.9288 2.65352 18.4163 3.24935 18.4163C3.84518 18.4163 4.33268 17.9288 4.33268 17.333V4.33301C4.33268 3.73717 4.82018 3.24967 5.41602 3.24967H16.2493C16.8452 3.24967 17.3327 2.76217 17.3327 2.16634C17.3327 1.57051 16.8452 1.08301 16.2493 1.08301ZM16.8885 6.05551L22.121 11.288C22.5218 11.6888 22.7493 12.2413 22.7493 12.8155V22.7497C22.7493 23.9413 21.7743 24.9163 20.5827 24.9163H8.65518C7.46351 24.9163 6.49935 23.9413 6.49935 22.7497L6.51018 7.58301C6.51018 6.39134 7.47435 5.41634 8.66602 5.41634H15.3502C15.9243 5.41634 16.4768 5.64384 16.8885 6.05551ZM16.2493 12.9997H21.1243L15.166 7.04134V11.9163C15.166 12.5122 15.6535 12.9997 16.2493 12.9997Z" fill="black"/>
</g>
<defs>
<clipPath id="clip0_1_775">
<rect width="26" height="26" fill="white"/>
</clipPath>
</defs>
</svg>
