<svg width="28" height="28" viewBox="0 0 28 28" fill="none" xmlns="http://www.w3.org/2000/svg">
<g clip-path="url(#clip0_1_766)">
<rect width="28" height="28" fill="black"/>
<path d="M25.6673 6.04301L12.3557 19.3663L7.40898 14.4197L9.05398 12.7747L12.3557 16.0763L24.0223 4.40967L25.6673 6.04301ZM14.0007 23.333C8.85565 23.333 4.66732 19.1447 4.66732 13.9997C4.66732 8.85468 8.85565 4.66634 14.0007 4.66634C15.8323 4.66634 17.5473 5.20301 18.994 6.12467L20.6856 4.43301C18.784 3.11467 16.4857 2.33301 14.0007 2.33301C7.56065 2.33301 2.33398 7.55967 2.33398 13.9997C2.33398 20.4397 7.56065 25.6663 14.0007 25.6663C16.019 25.6663 17.9207 25.153 19.5773 24.243L17.8273 22.493C16.6607 23.0297 15.3657 23.333 14.0007 23.333ZM22.1673 17.4997H18.6673V19.833H22.1673V23.333H24.5007V19.833H28.0007V17.4997H24.5007V13.9997H22.1673V17.4997Z" fill="white"/>
</g>
<defs>
<clipPath id="clip0_1_766">
<rect width="28" height="28" fill="white"/>
</clipPath>
</defs>
</svg>
