<svg width="75" height="75" viewBox="0 0 75 75" fill="none" xmlns="http://www.w3.org/2000/svg">
<path d="M2.79045 40.5647C-0.167127 39.7684 -0.16713 35.5722 2.79045 34.7759L6.75054 33.7096C19.8171 30.1915 30.0237 19.9849 33.5419 6.91829L34.6081 2.9582C35.4045 0.000618446 39.6007 0.000618502 40.397 2.9582L41.4632 6.91828C44.9814 19.9849 55.188 30.1915 68.2546 33.7096L72.2147 34.7759C75.1722 35.5722 75.1722 39.7684 72.2147 40.5647L68.2546 41.631C55.188 45.1491 44.9814 55.3557 41.4632 68.4223L40.397 72.3824C39.6007 75.34 35.4045 75.34 34.6081 72.3824L33.5419 68.4223C30.0237 55.3557 19.8171 45.1491 6.75055 41.631L2.79045 40.5647Z" fill="white"/>
</svg>
