<svg width="16" height="16" viewBox="0 0 16 16" fill="none" xmlns="http://www.w3.org/2000/svg">
<path d="M13.8151 5.47656L13.8152 5.47645L13.8091 5.47036C13.5182 5.17939 13.0399 5.17939 12.7489 5.47036L8.40226 9.81703C8.17989 10.0394 7.81818 10.0394 7.59581 9.81703L3.24915 5.47036C2.95818 5.17939 2.47989 5.17939 2.18893 5.47036C1.89796 5.76132 1.89796 6.23961 2.18893 6.53058L2.36357 6.35593L2.18893 6.53058L6.53559 10.8772C7.33989 11.6815 8.65818 11.6815 9.46248 10.8772L13.8091 6.53058C13.9585 6.38122 14.029 6.18986 14.029 6.00047C14.029 5.80372 13.9468 5.61766 13.8151 5.47656Z" fill="black" stroke="black" stroke-width="0.5"/>
</svg>
