<svg width="23" height="22" viewBox="0 0 23 22" fill="none" xmlns="http://www.w3.org/2000/svg">
<path d="M14.9491 16.4131C14.5451 16.4042 14.2202 16.0664 14.2202 15.6575C14.2114 15.2486 14.5363 14.9117 14.9403 14.9029H14.9491C15.3618 14.9029 15.6955 15.2406 15.6955 15.6575C15.6955 16.0753 15.3618 16.4131 14.9491 16.4131ZM11.3662 13.142C10.9622 13.1606 10.6285 12.8397 10.611 12.4317C10.611 12.0229 10.9271 11.6851 11.3311 11.6664C11.7262 11.6664 12.0512 11.9784 12.0599 12.3775C12.0775 12.7873 11.7614 13.1251 11.3662 13.142ZM11.3662 16.3686C10.9622 16.3873 10.6285 16.0664 10.611 15.6575C10.611 15.2486 10.9271 14.9117 11.3311 14.8931C11.7262 14.8931 12.0512 15.2051 12.0599 15.6051C12.0775 16.014 11.7614 16.3517 11.3662 16.3686ZM7.75698 13.142C7.35302 13.1606 7.01932 12.8397 7.00176 12.4317C7.00176 12.0229 7.3179 11.6851 7.72185 11.6664C8.11702 11.6664 8.44194 11.9784 8.45072 12.3775C8.46828 12.7873 8.15215 13.1251 7.75698 13.142ZM7.74819 16.3686C7.34424 16.3873 7.01054 16.0664 6.99298 15.6575C6.99298 15.2486 7.30912 14.9117 7.71307 14.8931C8.10824 14.8931 8.43316 15.2051 8.44194 15.6051C8.4595 16.014 8.14336 16.3517 7.74819 16.3686ZM14.229 12.4229C14.229 12.014 14.5451 11.6851 14.9491 11.6762C15.3442 11.6762 15.6604 11.9953 15.6779 12.3873C15.6867 12.7962 15.3706 13.134 14.9754 13.142C14.5715 13.1509 14.2378 12.8397 14.229 12.4317V12.4229ZM3.34863 8.56152V15.3286C3.34863 18.1375 5.12251 19.8886 7.90626 19.8886H14.7822C17.5923 19.8886 19.3486 18.1731 19.3486 15.3829V8.56152H3.34863Z" fill="#9896A3"/>
<path opacity="0.4" d="M3.35156 8.56079C3.36298 8.03902 3.40689 7.00346 3.48943 6.67013C3.91095 4.79546 5.34234 3.60435 7.38844 3.43457H15.3094C17.3379 3.61324 18.7869 4.81235 19.2084 6.67013C19.2901 6.99457 19.334 8.03813 19.3454 8.56079H3.35156Z" fill="#9896A3"/>
<path d="M8.06485 6.19035C8.45124 6.19035 8.74103 5.89791 8.74103 5.50591V2.79568C8.74103 2.40368 8.45124 2.11035 8.06485 2.11035C7.67846 2.11035 7.38867 2.40368 7.38867 2.79568V5.50591C7.38867 5.89791 7.67846 6.19035 8.06485 6.19035Z" fill="#9896A3"/>
<path d="M14.6332 6.19035C15.0108 6.19035 15.3094 5.89791 15.3094 5.50591V2.79568C15.3094 2.40368 15.0108 2.11035 14.6332 2.11035C14.2468 2.11035 13.957 2.40368 13.957 2.79568V5.50591C13.957 5.89791 14.2468 6.19035 14.6332 6.19035Z" fill="#9896A3"/>
</svg>
