<svg width="22" height="22" viewBox="0 0 22 22" fill="none" xmlns="http://www.w3.org/2000/svg">
<path opacity="0.4" d="M14.8375 2.11035H17.8473C19.0937 2.11035 20.1037 3.12889 20.1037 4.38587V7.42104C20.1037 8.67803 19.0937 9.69656 17.8473 9.69656H14.8375C13.5911 9.69656 12.5811 8.67803 12.5811 7.42104V4.38587C12.5811 3.12889 13.5911 2.11035 14.8375 2.11035Z" fill="black"/>
<path d="M7.59239 12.3019C8.83885 12.3019 9.84885 13.3205 9.84885 14.5774V17.6126C9.84885 18.8687 8.83885 19.8881 7.59239 19.8881H4.58264C3.33618 19.8881 2.32617 18.8687 2.32617 17.6126V14.5774C2.32617 13.3205 3.33618 12.3019 4.58264 12.3019H7.59239ZM17.8475 12.3019C19.0939 12.3019 20.104 13.3205 20.104 14.5774V17.6126C20.104 18.8687 19.0939 19.8881 17.8475 19.8881H14.8377C13.5913 19.8881 12.5813 18.8687 12.5813 17.6126V14.5774C12.5813 13.3205 13.5913 12.3019 14.8377 12.3019H17.8475ZM7.59239 2.11035C8.83885 2.11035 9.84885 3.12889 9.84885 4.38587V7.42104C9.84885 8.67803 8.83885 9.69656 7.59239 9.69656H4.58264C3.33618 9.69656 2.32617 8.67803 2.32617 7.42104V4.38587C2.32617 3.12889 3.33618 2.11035 4.58264 2.11035H7.59239Z" fill="black"/>
</svg>
