<svg width="25" height="25" viewBox="0 0 25 25" fill="none" xmlns="http://www.w3.org/2000/svg">
<path d="M12.5007 2.08301C6.76107 2.08301 2.08398 6.76009 2.08398 12.4997C2.08398 18.2393 6.76107 22.9163 12.5007 22.9163C18.2402 22.9163 22.9173 18.2393 22.9173 12.4997C22.9173 6.76009 18.2402 2.08301 12.5007 2.08301ZM17.0319 16.2184C16.8861 16.4684 16.6257 16.6038 16.3548 16.6038C16.2194 16.6038 16.084 16.5726 15.959 16.4893L12.7298 14.5622C11.9277 14.083 11.334 13.0309 11.334 12.1038V7.83301C11.334 7.40592 11.6882 7.05176 12.1152 7.05176C12.5423 7.05176 12.8965 7.40592 12.8965 7.83301V12.1038C12.8965 12.4788 13.209 13.0309 13.5319 13.2184L16.7611 15.1455C17.1361 15.3643 17.2611 15.8434 17.0319 16.2184Z" fill="black"/>
</svg>
