<svg width="34" height="34" viewBox="0 0 34 34" fill="none" xmlns="http://www.w3.org/2000/svg">
<path d="M17.0007 2.8335C9.19482 2.8335 2.83398 9.19433 2.83398 17.0002C2.83398 24.806 9.19482 31.1668 17.0007 31.1668C24.8065 31.1668 31.1673 24.806 31.1673 17.0002C31.1673 9.19433 24.8065 2.8335 17.0007 2.8335ZM22.6673 18.0627H18.0632V22.6668C18.0632 23.2477 17.5815 23.7293 17.0007 23.7293C16.4198 23.7293 15.9382 23.2477 15.9382 22.6668V18.0627H11.334C10.7532 18.0627 10.2715 17.581 10.2715 17.0002C10.2715 16.4193 10.7532 15.9377 11.334 15.9377H15.9382V11.3335C15.9382 10.7527 16.4198 10.271 17.0007 10.271C17.5815 10.271 18.0632 10.7527 18.0632 11.3335V15.9377H22.6673C23.2481 15.9377 23.7298 16.4193 23.7298 17.0002C23.7298 17.581 23.2481 18.0627 22.6673 18.0627Z" fill="black"/>
</svg>
