<svg width="23" height="22" viewBox="0 0 23 22" fill="none" xmlns="http://www.w3.org/2000/svg">
<path opacity="0.4" d="M11.482 2.11133C9.1531 2.11133 7.25977 4.00466 7.25977 6.33355C7.25977 8.61799 9.04643 10.4669 11.3753 10.5469C11.4464 10.538 11.5175 10.538 11.5709 10.5469C11.5887 10.5469 11.5975 10.5469 11.6153 10.5469C11.6242 10.5469 11.6242 10.5469 11.6331 10.5469C13.9087 10.4669 15.6953 8.61799 15.7042 6.33355C15.7042 4.00466 13.8109 2.11133 11.482 2.11133Z" fill="#9896A3"/>
<path d="M15.9979 12.9109C13.5179 11.2576 9.4735 11.2576 6.97572 12.9109C5.84683 13.6665 5.22461 14.6887 5.22461 15.782C5.22461 16.8753 5.84683 17.8887 6.96683 18.6353C8.21128 19.4709 9.84683 19.8887 11.4824 19.8887C13.1179 19.8887 14.7535 19.4709 15.9979 18.6353C17.1179 17.8798 17.7402 16.8665 17.7402 15.7642C17.7313 14.6709 17.1179 13.6576 15.9979 12.9109Z" fill="#9896A3"/>
</svg>
